<?xml version="1.0" encoding="UTF-8"?>
<svg xmlns="http://www.w3.org/2000/svg" width="37" height="138" viewBox="0 0 37 138" fill="none"> <path d="M33.7238 1.71875C27.5378 10.8633 21.5876 20.5897 14.8689 29.3532C14.2236 30.1949 8.56566 35.1671 9.18337 35.9907C14.6309 43.2541 19.2741 51.1363 24.2038 58.7859C27.5923 64.0439 31.6162 68.9803 35.7071 73.7005C35.9619 73.9945 35.946 73.9354 35.7071 74.2294C34.249 76.0241 32.7959 77.8237 31.3438 79.6241C23.8658 88.8956 16.4609 98.4423 8.17848 107.021C5.66679 109.622 -0.983368 113.953 1.83182 118.048C5.69728 123.67 11.9687 128.052 16.9051 132.672C18.015 133.71 19.8477 136.153 21.3478 136.903" stroke="#FCFCFC" stroke-width="2" stroke-linecap="round" stroke-linejoin="round"/> </svg>