<?xml version="1.0" encoding="UTF-8"?>
<svg xmlns="http://www.w3.org/2000/svg" width="1920" height="1090" viewBox="0 0 1920 1090" fill="none"> <g opacity="0.8"> <line x1="320.5" y1="-2.18557e-08" x2="320.5" y2="1090" stroke="#FCFCFC"/> <line x1="640.5" y1="-2.18557e-08" x2="640.5" y2="1090" stroke="#FCFCFC"/> <line x1="960.5" y1="-2.18557e-08" x2="960.5" y2="1090" stroke="#FCFCFC"/> <line x1="1280.5" y1="-2.18557e-08" x2="1280.5" y2="1090" stroke="#FCFCFC"/> <line x1="1600.5" y1="-2.18557e-08" x2="1600.5" y2="1090" stroke="#FCFCFC"/> <line x1="160.5" y1="-2.18557e-08" x2="160.5" y2="1090" stroke="#FCFCFC"/> <line x1="480.5" y1="-2.18557e-08" x2="480.5" y2="1090" stroke="#FCFCFC"/> <path d="M800.5 0C800.5 425.671 800.5 664.329 800.5 1090" stroke="#FCFCFC"/> <line x1="1120.5" y1="-2.18557e-08" x2="1120.5" y2="1090" stroke="#FCFCFC"/> <line x1="1440.5" y1="-2.18557e-08" x2="1440.5" y2="1090" stroke="#FCFCFC"/> <line x1="1760.5" y1="-2.18557e-08" x2="1760.5" y2="1090" stroke="#FCFCFC"/> <line y1="219.5" x2="1920" y2="219.5" stroke="#FCFCFC"/> <line y1="539.5" x2="1920" y2="539.5" stroke="#FCFCFC"/> <line y1="859.5" x2="1920" y2="859.5" stroke="#FCFCFC"/> <line y1="59.5" x2="1920" y2="59.5" stroke="#FCFCFC"/> <line y1="379.5" x2="1920" y2="379.5" stroke="#FCFCFC"/> <line y1="699.5" x2="1920" y2="699.5" stroke="#FCFCFC"/> <line y1="1019.5" x2="1920" y2="1019.5" stroke="#FCFCFC"/> </g> </svg>